<?xml version="1.0"?>
<svg xmlns="http://www.w3.org/2000/svg" height="512px" viewBox="0 0 512 512" width="512px" class=""><g><path d="m448 74.390625v-30.082031c0-24.433594-19.875-44.308594-44.308594-44.308594h-295.382812c-24.433594 0-44.308594 19.875-44.308594 44.308594v30.082031l-57.246094 88.070313h498.492188zm-64 19.148437h-256c-8.15625 0-14.769531-6.613281-14.769531-14.769531s6.613281-14.769531 14.769531-14.769531h256c8.15625 0 14.769531 6.613281 14.769531 14.769531s-6.613281 14.769531-14.769531 14.769531zm0 0" data-original="#000000" class="active-path" data-old_color="#000000" fill="#6A75CA"/><path d="m75.078125 256c24.679687 0 46.613281-12.171875 60.304687-30.917969 13.695313 18.746094 35.628907 30.917969 60.308594 30.917969 24.683594 0 46.617188-12.171875 60.308594-30.917969 13.691406 18.746094 35.625 30.917969 60.308594 30.917969 24.679687 0 46.613281-12.171875 60.308594-30.917969 13.691406 18.746094 35.625 30.917969 60.304687 30.917969 37.277344 0 68.28125-27.757812 74.085937-64h-510.015624c5.804687 36.242188 36.808593 64 74.085937 64zm0 0" data-original="#000000" class="active-path" data-old_color="#000000" fill="#6A75CA"/><path d="m467.691406 418.527344c-.8125-.042969-420.921875-.066406-420.921875-.066406-.828125 0-1.648437.023437-2.460937.066406-24.648438 1.285156-44.308594 21.742187-44.308594 46.703125 0 25.789062 20.980469 46.769531 46.769531 46.769531h418.460938c25.789062 0 46.769531-20.980469 46.769531-46.769531 0-24.960938-19.660156-45.417969-44.308594-46.703125zm0 0" data-original="#000000" class="active-path" data-old_color="#000000" fill="#6A75CA"/><path d="m354.460938 339.691406c8.144531 0 14.769531-6.625 14.769531-14.769531 0-8.140625-6.625-14.769531-14.769531-14.769531h-39.382813c-8.144531 0-14.769531 6.628906-14.769531 14.769531 0 8.144531 6.625 14.769531 14.769531 14.769531zm0 0" data-original="#000000" class="active-path" data-old_color="#000000" fill="#6A75CA"/><path d="m465.230469 388.921875c.824219 0 1.644531.039063 2.460937.0625v-108.121094c-9.730468 3.039063-20.0625 4.675781-30.769531 4.675781-16.652344 0-33.246094-4.082031-47.980469-11.804687-4.273437-2.238281-8.390625-4.78125-12.324218-7.601563-3.933594 2.820313-8.054688 5.363282-12.328126 7.601563-5.289062 2.773437-10.820312 5.066406-16.507812 6.882813h6.679688c24.433593 0 44.308593 19.875 44.308593 44.304687 0 24.433594-19.875 44.308594-44.308593 44.308594h-39.382813c-24.433594 0-44.308594-19.875-44.308594-44.308594 0-18.480469 11.378907-34.351563 27.496094-40.984375-10.421875-1.851562-20.558594-5.285156-29.941406-10.203125-4.269531-2.238281-8.390625-4.78125-12.324219-7.601563-3.933594 2.820313-8.054688 5.363282-12.324219 7.601563-9.382812 4.917969-19.519531 8.351563-29.945312 10.203125 16.121093 6.632812 27.5 22.503906 27.5 40.984375v64zm0 0" data-original="#000000" class="active-path" data-old_color="#000000" fill="#6A75CA"/><path d="m164.21875 280.617188c-5.6875-1.816407-11.21875-4.109376-16.511719-6.882813-4.269531-2.238281-8.390625-4.78125-12.324219-7.601563-3.933593 2.820313-8.050781 5.363282-12.324218 7.601563-14.734375 7.722656-31.328125 11.804687-47.980469 11.804687-10.707031 0-21.039063-1.640624-30.769531-4.675781v108.121094c.816406-.023437 1.636718-.058594 2.460937-.058594h66.460938v-64c0-24.433593 19.875-44.308593 44.308593-44.308593zm0 0" data-original="#000000" class="active-path" data-old_color="#000000" fill="#6A75CA"/><path d="m211.691406 324.921875c0-8.140625-6.625-14.769531-14.769531-14.769531h-39.382813c-8.144531 0-14.769531 6.628906-14.769531 14.769531v64h68.921875zm0 0" data-original="#000000" class="active-path" data-old_color="#000000" fill="#6A75CA"/></g> </svg>
