<svg version="1.1"
      xmlns="http://www.w3.org/2000/svg"
      xmlns:xlink="http://www.w3.org/1999/xlink"  id="snapshot-01659" width="250" height="250" viewBox="0 0 250 250"><desc>This image was made on Patterninja.com</desc><defs>
<!-- image tmp-1 -->
<g id="transformed-tmp-1" data-image="tmp-1" transform="translate(95.16, 189.82) rotate(14, 25, 29.5)"><g><svg version="1.1" width="50px" height="59px" viewBox="0 0 50 59"><g id="original-tmp-1"><svg version="1.1" xmlns="http://www.w3.org/2000/svg" viewBox="0 0 41 48" xmlns:xlink="http://www.w3.org/1999/xlink" preserveAspectRatio="xMidYMid meet">
  <path d="M39.938 2.185h-6.326a.9.9 0 0 1 0-1.8h6.326a.9.9 0 0 1 0 1.8" fill-rule="evenodd" fill="rgba(103, 26, 29, 1)" stroke="none"/>
  <path d="M26.364 39.67c6.62-6.621 9.184-16.734 2.713-23.204-6.471-6.471-16.584-3.908-23.204 2.713C.554 24.498-.022 30.995 2.507 36.661c.393.88.52 1.857.396 2.845-.135 1.079.052 1.955.616 2.518.563.564 1.439.751 2.518.616.988-.124 1.965.003 2.845.396 5.666 2.529 12.163 1.953 17.482-3.366" fill-rule="evenodd" fill="rgba(255, 255, 255, 1)" stroke="none"/>
  <path d="M20.141 14.346c-5.537 0-10.025-6.015-10.025-6.015s4.488-6.014 10.025-6.014c5.536 0 10.024 6.014 10.024 6.014s-4.488 6.015-10.024 6.015" fill-rule="evenodd" fill="rgba(255, 255, 255, 1)" stroke="none"/>
  <path d="M30.165 8.331l5.319-1.172" fill-rule="evenodd" fill="rgba(45, 176, 141, 1)" stroke="none"/>
  <path d="M30.165 9.232a.902.902 0 0 1-.194-1.78L35.29 6.28a.899.899 0 1 1 .388 1.757L30.359 9.21a.862.862 0 0 1-.194.022" fill-rule="evenodd" fill="rgba(103, 26, 29, 1)" stroke="none"/>
  <path d="M29.243 42.55c6.621-6.62 9.185-16.733 2.714-23.204s-16.584-3.908-23.205 2.713c-5.318 5.319-5.895 11.816-3.365 17.482.393.88.52 1.857.396 2.845-.135 1.079.052 1.955.615 2.518.564.564 1.439.751 2.518.616.989-.124 1.966.003 2.846.396 5.665 2.529 12.163 1.953 17.481-3.366" fill-rule="evenodd" fill="rgba(254, 242, 125, 1)" stroke="none"/>
  <path d="M26.364 39.67h.007-.007zM6.755 41.694c.875 0 1.724.176 2.494.52 5.841 2.608 11.848 1.449 16.479-3.18 5.974-5.974 8.954-15.691 2.713-21.932-6.243-6.242-15.958-3.26-21.932 2.714C1.88 24.445.72 30.451 3.329 36.294c.452 1.012.613 2.162.467 3.325-.072.571-.068 1.343.359 1.769.427.426 1.198.43 1.77.359.278-.035.555-.053.83-.053zm8.673 3.702c-2.276 0-4.605-.508-6.913-1.539-.711-.317-1.529-.429-2.366-.324-1.762.219-2.748-.353-3.266-.872-.52-.519-1.093-1.507-.873-3.266.105-.837-.007-1.656-.325-2.367C-1.244 30.466.05 23.729 5.237 18.543c6.591-6.591 17.41-9.781 24.477-2.714 7.068 7.068 3.877 17.887-2.714 24.478-3.363 3.362-7.377 5.089-11.572 5.089z" fill-rule="evenodd" fill="rgba(103, 26, 29, 1)" stroke="none"/>
  <path d="M23.02 17.226c-5.536 0-10.024-6.014-10.024-6.014s4.488-6.015 10.024-6.015c5.537 0 10.025 6.015 10.025 6.015s-4.488 6.014-10.025 6.014" fill-rule="evenodd" fill="rgba(45, 176, 141, 1)" stroke="none"/>
  <path d="M11.277 8.331c1.214 1.412 4.788 5.115 8.864 5.115 4.075 0 7.647-3.701 8.862-5.115-1.215-1.413-4.787-5.115-8.862-5.115-4.088 0-7.652 3.701-8.864 5.115zm8.864 6.915c-5.92 0-10.552-6.116-10.747-6.376a.902.902 0 0 1 0-1.077c.195-.26 4.827-6.376 10.747-6.376 5.919 0 10.552 6.116 10.746 6.376a.902.902 0 0 1 0 1.077c-.194.26-4.827 6.376-10.746 6.376z" fill-rule="evenodd" fill="rgba(103, 26, 29, 1)" stroke="none"/>
  <path d="M36.649 4.961a.898.898 0 0 1-.869-1.136c.251-.924.378-1.778.378-2.54a.9.9 0 0 1 1.8 0c0 .921-.148 1.935-.442 3.012a.899.899 0 0 1-.867.664" fill-rule="evenodd" fill="rgba(103, 26, 29, 1)" stroke="none"/>
  <path d="M30.165 16.278a.9.9 0 0 1-.685-1.484c.032-.037 3.232-3.82 5.189-8.015a.9.9 0 0 1 1.631.76c-2.062 4.422-5.312 8.261-5.45 8.422a.897.897 0 0 1-.685.317" fill-rule="evenodd" fill="rgba(103, 26, 29, 1)" stroke="none"/>
  <path d="M25.871 31.039a.901.901 0 0 1-.848-1.199c.626-1.781 1.273-5.174-1.436-7.883a.9.9 0 1 1 1.272-1.273c2.488 2.488 3.167 6.043 1.861 9.753a.901.901 0 0 1-.849.602" fill-rule="evenodd" fill="rgba(103, 26, 29, 1)" stroke="none"/>
  <path d="M22.595 36.143a.901.901 0 0 1-.637-1.537c.44-.439.853-.912 1.227-1.404a.9.9 0 1 1 1.433 1.089c-.424.557-.89 1.092-1.387 1.588a.897.897 0 0 1-.636.264" fill-rule="evenodd" fill="rgba(103, 26, 29, 1)" stroke="none"/>
</svg>
</g></svg></g></g>
<!-- /image tmp-1 -->

<!-- image tmp-2 -->
<g id="transformed-tmp-2" data-image="tmp-2" transform="translate(112.49000000000001, 59.81999999999999) rotate(0, 25, 30.5)"><g><svg version="1.1" width="50px" height="61px" viewBox="0 0 50 61"><g id="original-tmp-2"><svg version="1.1" xmlns="http://www.w3.org/2000/svg" viewBox="0 0 40 48" xmlns:xlink="http://www.w3.org/1999/xlink"  preserveAspectRatio="xMidYMid meet">
  <path d="M21.407 1.667c-2.959 1.247-4.003 5.474-4.003 5.474s3.754 2.203 6.713.956c2.959-1.247 4.003-5.473 4.003-5.473S24.366.42 21.407 1.667" fill-rule="evenodd" fill="rgba(255, 255, 255, 1)" stroke="none"/>
  <path d="M24.287 4.547c-2.959 1.247-4.003 5.473-4.003 5.473s3.754 2.204 6.713.957C29.956 9.73 31 5.503 31 5.503s-3.754-2.203-6.713-.956" fill-rule="evenodd" fill="rgba(45, 176, 141, 1)" stroke="none"/>
  <path d="M18.49 6.683c1.1.507 3.428 1.364 5.278.585 1.849-.78 2.861-3.044 3.266-4.187-1.1-.507-3.428-1.363-5.277-.585-1.85.78-2.861 3.045-3.267 4.187zm3.604 2.695c-2.618 0-5.016-1.385-5.146-1.461a.9.9 0 0 1-.418-.992c.047-.191 1.191-4.681 4.528-6.087 3.334-1.405 7.349.91 7.518 1.009a.902.902 0 0 1 .419.993c-.048.19-1.192 4.68-4.529 6.086-.772.326-1.582.452-2.372.452z" fill-rule="evenodd" fill="rgba(103, 26, 29, 1)" stroke="none"/>
  <path d="M18.335 44.315a.982.982 0 0 0 1.103 0c3.345-2.266 15.165-2.791 17.169-15.346 2.271-14.225-9.812-21.992-17.721-14.992-7.908-7-19.991.767-17.72 14.992C3.17 41.524 14.99 42.049 18.335 44.315" fill-rule="evenodd" fill="rgba(255, 255, 255, 1)" stroke="none"/>
  <path d="M21.214 47.196a.987.987 0 0 0 1.104 0c3.345-2.267 15.165-2.792 17.169-15.347 2.271-14.225-9.812-21.992-17.721-14.992-7.908-7-19.991.767-17.72 14.992C6.05 44.404 17.87 44.929 21.214 47.196" fill-rule="evenodd" fill="rgba(241, 169, 109, 1)" stroke="none"/>
  <path d="M18.839 43.57c.029.02.067.02.095 0 .877-.594 2.185-1.051 3.699-1.58 4.91-1.716 11.633-4.067 13.086-13.163 1.315-8.244-2.397-13.464-5.976-15.43-3.415-1.876-7.252-1.407-10.26 1.254a.899.899 0 0 1-1.193 0c-3.007-2.662-6.843-3.131-10.26-1.254-3.579 1.966-7.291 7.186-5.976 15.431 1.453 9.095 8.176 11.446 13.085 13.162 1.515.529 2.823.986 3.7 1.58zm.047 1.817c-.367 0-.735-.109-1.056-.326v-.001c-.683-.462-1.889-.883-3.284-1.371C9.815 42.035 1.898 39.268.277 29.111c-1.205-7.545 1.499-14.333 6.886-17.292 3.829-2.102 8.254-1.71 11.723.989 3.468-2.699 7.896-3.092 11.724-.989 5.387 2.959 8.09 9.747 6.886 17.292-1.621 10.157-9.539 12.924-14.269 14.578-1.395.488-2.601.909-3.284 1.371a1.878 1.878 0 0 1-1.057.327z" fill-rule="evenodd" fill="rgba(103, 26, 29, 1)" stroke="none"/>
  <path d="M18.886 36.745c-3.14 0-7.123-4.153-7.123-8.82 0-2.606.608-4.789 1.759-6.313a.9.9 0 1 1 1.437 1.084c-.913 1.21-1.396 3.018-1.396 5.229 0 4.056 3.501 7.02 5.323 7.02 1.823 0 5.324-2.964 5.324-7.02 0-2.622-.691-7.02-5.324-7.02a.9.9 0 0 1 0-1.8c4.461 0 7.124 3.297 7.124 8.82 0 4.667-3.983 8.82-7.124 8.82" fill-rule="evenodd" fill="rgba(103, 26, 29, 1)" stroke="none"/>
  <path d="M20.385 30.855a.9.9 0 0 1-.869-1.134 6.949 6.949 0 0 0 .239-1.796c0-1.058-.111-2.032-.331-2.897a.9.9 0 1 1 1.743-.444c.258 1.009.388 2.133.388 3.341 0 .755-.101 1.517-.301 2.263a.901.901 0 0 1-.869.667" fill-rule="evenodd" fill="rgba(103, 26, 29, 1)" stroke="none"/>
  <path d="M12.367 2.485a.895.895 0 0 1-.495-.149 6.5 6.5 0 0 0-.433-.262.9.9 0 0 1 .866-1.578c.179.098.366.211.558.338a.9.9 0 0 1-.496 1.651" fill-rule="evenodd" fill="rgba(103, 26, 29, 1)" stroke="none"/>
  <path d="M18.945 14.877a.9.9 0 0 1-.9-.9c0-4.828-2.79-8.407-3.99-9.722a.9.9 0 0 1 1.33-1.214c1.341 1.47 4.46 5.478 4.46 10.936a.9.9 0 0 1-.9.9" fill-rule="evenodd" fill="rgba(103, 26, 29, 1)" stroke="none"/>
</svg>
</g></svg></g></g>
<!-- /image tmp-2 -->

<!-- image 96999 -->
<g id="transformed-96999" data-image="96999" transform="translate(200.55212966320653, 93.97648895335652) rotate(51, 19.27787033679348, 37.013511046643494)"><g><svg version="1.1" width="38.55574067358696px" height="74.02702209328699px" viewBox="0 0 38.55574067358696 74.02702209328699"><g id="original-96999"><svg xmlns="http://www.w3.org/2000/svg" viewBox="0 0 41 79" xmlns:xlink="http://www.w3.org/1999/xlink" version="1.1" preserveAspectRatio="xMidYMid meet">
  <path fill-rule="evenodd" d="M29.33 17.545c-.25-.042-.514-.063-.771-.094-.396-.766-.932-1.242-1.526-1.242V14.3a6.447 6.447 0 0 0-6.445-6.445 6.442 6.442 0 0 0-6.445 6.445v1.91c-.594 0-1.13.475-1.526 1.24-.257.032-.52.053-.77.095C4.903 18.666.79 24.23.79 29.615V57.13c0 5.309 3.963 10.82 10.756 12.017.241.042.498.062.745.097.39 1.222 1.07 2.04 1.851 2.04v.933a6.442 6.442 0 0 0 6.445 6.444 6.447 6.447 0 0 0 6.445-6.444v-.934c.78 0 1.46-.817 1.851-2.039.247-.035.503-.055.744-.097 6.794-1.196 10.757-6.708 10.757-12.017V29.615c0-5.384-4.113-10.949-11.056-12.07z" fill="rgba(66, 61, 56, 1)" stroke="none"/>
  <path fill-rule="evenodd" d="M37.5 22.303v27.516c0 4.754-4.026 9.667-9.752 11.504V10.81c5.726 1.86 9.753 6.74 9.753 11.494z" fill="rgba(249, 201, 83, 1)" stroke="none"/>
  <path fill-rule="evenodd" d="M40.385 22.303v27.516c0 5.309-3.963 10.82-10.757 12.017-.608.107-1.239.192-1.88.246V10.04c.535.043 1.069.107 1.581.193 6.943 1.121 11.056 6.686 11.056 12.07z" fill="rgba(249, 201, 83, 1)" stroke="none"/>
  <path fill-rule="evenodd" d="M37.5 22.303v27.516c0 4.754-4.026 9.667-9.752 11.504V10.81c5.726 1.86 9.753 6.74 9.753 11.494z" fill="rgba(249, 201, 83, 0.2)" stroke="none"/>
  <path fill-rule="evenodd" d="M29.532 22.485c-.17.48-.17.993 0 1.484.257.716.417 1.603.417 2.553 0 .951-.16 1.838-.417 2.564-.17.48-.17.993 0 1.474.257.726.417 1.613.417 2.574 0 .951-.16 1.838-.417 2.564-.17.48-.17.993 0 1.485.257.715.417 1.602.417 2.563 0 .951-.16 1.838-.417 2.564-.17.48-.17.993 0 1.485.257.715.417 1.613.417 2.563 0 .951-.16 1.838-.417 2.564-.17.48-.17.993 0 1.485.257.715.417 1.602.417 2.553 0 .95-.16 1.837-.417 2.563-.17.48-.17.994 0 1.485.257.716.417 1.602.417 2.564 0 .833-.118 1.602-.32 2.264-.61.107-1.24.192-1.88.246V10.04a18.63 18.63 0 0 1 1.58.193c.385.8.62 1.88.62 3.076 0 .95-.16 1.837-.417 2.564-.17.48-.17.993 0 1.484.257.716.417 1.603.417 2.564 0 .95-.16 1.837-.417 2.564z" fill="rgba(140, 193, 64, 0.6)" stroke="none"/>
  <path fill-rule="evenodd" d="M29.233 19.921c0 .953-.152 1.84-.41 2.56-.175.485-.176 1-.002 1.484.26.725.412 1.61.412 2.557 0 .955-.152 1.837-.412 2.56a2.173 2.173 0 0 0 0 1.482c.26.726.412 1.614.412 2.57 0 .953-.152 1.839-.41 2.56-.175.485-.175 1 0 1.486.258.722.41 1.605.41 2.566 0 .954-.152 1.84-.41 2.56-.175.485-.176 1-.002 1.484.26.725.412 1.613.412 2.568 0 .954-.152 1.84-.41 2.56-.175.485-.176 1-.002 1.485.26.724.412 1.61.412 2.557 0 .953-.152 1.838-.41 2.559-.175.485-.175 1 0 1.486.258.722.41 1.605.41 2.567 0 2.424-.983 4.4-2.2 4.4V8.897c1.217 0 2.2 1.977 2.2 4.412 0 .953-.152 1.839-.41 2.559-.175.485-.175 1 0 1.486.258.722.41 1.605.41 2.567z" fill="rgba(140, 193, 64, 1)" stroke="none"/>
  <path fill-rule="evenodd" d="M3.675 22.303v27.516c0 4.754 4.027 9.667 9.752 11.504V10.81c-5.725 1.86-9.752 6.74-9.752 11.494z" fill="rgba(249, 201, 83, 1)" stroke="none"/>
  <path fill-rule="evenodd" d="M.791 22.303v27.516c0 5.309 3.963 10.82 10.756 12.017.61.107 1.24.192 1.88.246V10.04a18.77 18.77 0 0 0-1.58.193C4.902 11.354.79 16.919.79 22.303z" fill="rgba(249, 201, 83, 1)" stroke="none"/>
  <path fill-rule="evenodd" d="M3.675 22.303v27.516c0 4.754 4.027 9.667 9.752 11.504V10.81c-5.725 1.86-9.752 6.74-9.752 11.494z" fill="rgba(249, 201, 83, 0.2)" stroke="none"/>
  <path fill-rule="evenodd" d="M11.644 22.485c.17.48.17.993 0 1.484-.257.716-.417 1.603-.417 2.553 0 .951.16 1.838.417 2.564.17.48.17.993 0 1.474a7.832 7.832 0 0 0-.417 2.574c0 .951.16 1.838.417 2.564.17.48.17.993 0 1.485-.257.715-.417 1.602-.417 2.563 0 .951.16 1.838.417 2.564.17.48.17.993 0 1.485-.257.715-.417 1.613-.417 2.563 0 .951.16 1.838.417 2.564.17.48.17.993 0 1.485-.257.715-.417 1.602-.417 2.553 0 .95.16 1.837.417 2.563.17.48.17.994 0 1.485-.257.716-.417 1.602-.417 2.564 0 .833.117 1.602.32 2.264.61.107 1.24.192 1.88.246V10.04a18.77 18.77 0 0 0-1.58.193c-.385.8-.62 1.88-.62 3.076 0 .95.16 1.837.417 2.564.17.48.17.993 0 1.484-.257.716-.417 1.603-.417 2.564 0 .95.16 1.837.417 2.564z" fill="rgba(188, 72, 53, 0.3)" stroke="none"/>
  <path fill-rule="evenodd" d="M11.943 19.921c0 .953.152 1.84.41 2.56.175.485.175 1 .002 1.484-.26.725-.412 1.61-.412 2.557 0 .955.152 1.837.412 2.56.174.483.174.998 0 1.482-.26.726-.412 1.614-.412 2.57 0 .953.151 1.839.41 2.56.174.485.175 1 0 1.486-.258.722-.41 1.605-.41 2.566 0 .954.152 1.84.41 2.56.175.485.176 1 .002 1.484-.26.725-.412 1.613-.412 2.568 0 .954.152 1.84.41 2.56.175.485.175 1 .002 1.485-.26.724-.412 1.61-.412 2.557 0 .953.151 1.838.41 2.559.174.485.175 1 0 1.486-.258.722-.41 1.605-.41 2.567 0 2.424.982 4.4 2.2 4.4V8.897c-1.218 0-2.2 1.977-2.2 4.412 0 .953.151 1.839.41 2.559.174.485.175 1 0 1.486-.258.722-.41 1.605-.41 2.567z" fill="rgba(188, 72, 53, 1)" stroke="none"/>
  <path fill-rule="evenodd" d="M27.033 6.988v57.918a6.447 6.447 0 0 1-6.445 6.444 6.442 6.442 0 0 1-6.445-6.444V6.988A6.442 6.442 0 0 1 20.588.544a6.447 6.447 0 0 1 6.445 6.444z" fill="rgba(188, 94, 57, 1)" stroke="none"/>
  <path fill-rule="evenodd" d="M22.094 70.623a7.254 7.254 0 0 0 1.489-4.41V5.68c0-1.61-.53-3.154-1.49-4.409 2.53.672 4.406 2.989 4.406 5.712V64.91c0 2.724-1.877 5.041-4.405 5.713z" fill="rgba(188, 94, 57, 0.3)" stroke="none"/>
  <ellipse cx="17.58" cy="4.014" fill-rule="evenodd" transform="rotate(-50.004 17.58 4.014)" rx="2.27" ry="1.469" fill="rgba(188, 94, 57, 0.3)" stroke="none"/>
  <path fill-rule="evenodd" d="M19.52 65.017c-.59 0-1.069-.478-1.069-1.068 0-2.037 1.44-3.033 2.597-3.833 1.07-.74 1.676-1.2 1.676-2.075 0-.875-.605-1.337-1.676-2.077-1.156-.8-2.597-1.795-2.597-3.832 0-2.036 1.44-3.032 2.598-3.831 1.07-.74 1.675-1.2 1.675-2.074 0-.871-.605-1.332-1.675-2.07-1.157-.8-2.598-1.794-2.598-3.83 0-2.035 1.44-3.03 2.598-3.83 1.07-.738 1.675-1.199 1.675-2.072 0-.872-.605-1.333-1.675-2.072-1.157-.799-2.598-1.793-2.598-3.829 0-2.036 1.44-3.03 2.598-3.83 1.07-.738 1.675-1.199 1.675-2.071 0-.872-.605-1.333-1.675-2.072-1.157-.799-2.598-1.793-2.598-3.83 0-2.034 1.44-3.028 2.598-3.827 1.07-.738 1.675-1.199 1.675-2.07a1.068 1.068 0 0 1 2.137 0c0 2.035-1.441 3.03-2.598 3.828-1.07.738-1.675 1.198-1.675 2.07 0 .872.605 1.333 1.675 2.072 1.157.799 2.598 1.793 2.598 3.829 0 2.036-1.44 3.03-2.598 3.83-1.07.738-1.675 1.199-1.675 2.071 0 .872.605 1.333 1.675 2.072 1.157.799 2.598 1.793 2.598 3.83 0 2.035-1.44 3.03-2.598 3.83-1.07.739-1.675 1.2-1.675 2.072 0 .872.605 1.332 1.675 2.07 1.157.8 2.598 1.794 2.598 3.83s-1.44 3.031-2.598 3.83c-1.07.74-1.675 1.2-1.675 2.074 0 .874.605 1.336 1.676 2.075 1.156.8 2.597 1.796 2.597 3.834 0 2.037-1.44 3.033-2.597 3.833-1.07.74-1.676 1.2-1.676 2.075 0 .59-.478 1.068-1.068 1.068z" fill="rgba(188, 94, 57, 0.4)" stroke="none"/>
  <path fill-rule="evenodd" d="M18.451 65.017c-.59 0-1.068-.478-1.068-1.068 0-2.037 1.44-3.033 2.597-3.833 1.07-.74 1.676-1.2 1.676-2.075 0-.875-.606-1.337-1.676-2.077-1.157-.8-2.597-1.795-2.597-3.832 0-2.036 1.44-3.032 2.598-3.831 1.07-.74 1.675-1.2 1.675-2.074 0-.871-.605-1.332-1.675-2.07-1.157-.8-2.598-1.794-2.598-3.83 0-2.035 1.44-3.03 2.598-3.83 1.07-.738 1.675-1.199 1.675-2.072 0-.872-.606-1.333-1.675-2.072-1.158-.799-2.598-1.793-2.598-3.829 0-2.036 1.44-3.03 2.598-3.83 1.07-.738 1.675-1.199 1.675-2.071 0-.872-.606-1.333-1.675-2.072-1.158-.799-2.598-1.793-2.598-3.83 0-2.034 1.44-3.028 2.598-3.827 1.07-.738 1.675-1.199 1.675-2.07a1.068 1.068 0 0 1 2.136 0c0 2.035-1.44 3.03-2.598 3.828-1.07.738-1.674 1.198-1.674 2.07 0 .872.605 1.333 1.675 2.072 1.157.799 2.597 1.793 2.597 3.829 0 2.036-1.44 3.03-2.597 3.83-1.07.738-1.675 1.199-1.675 2.071 0 .872.605 1.333 1.675 2.072 1.157.799 2.597 1.793 2.597 3.83 0 2.035-1.44 3.03-2.597 3.83-1.07.739-1.675 1.2-1.675 2.072 0 .872.605 1.332 1.675 2.07 1.157.8 2.597 1.794 2.597 3.83s-1.44 3.031-2.597 3.83c-1.07.74-1.675 1.2-1.675 2.074 0 .874.605 1.336 1.675 2.075 1.157.8 2.597 1.796 2.597 3.834 0 2.037-1.44 3.033-2.597 3.833-1.07.74-1.675 1.2-1.675 2.075 0 .59-.479 1.068-1.069 1.068z" fill="rgba(249, 228, 70, 1)" stroke="none"/>
</svg>
</g></svg></g></g>
<!-- /image 96999 -->

<!-- image 58968 -->
<g id="transformed-58968" data-image="58968" transform="translate(22, 10) rotate(10, 25, 30)"><g><svg version="1.1" width="50px" height="60px" viewBox="0 0 50 60"><g id="original-58968"><svg xmlns="http://www.w3.org/2000/svg" viewBox="0 0 40 48" xmlns:xlink="http://www.w3.org/1999/xlink" version="1.1" preserveAspectRatio="xMidYMid meet">
  <path fill-rule="evenodd" d="M7.446 15.277c3.902 3.901 11.303 2.826 11.303 2.826s1.076-7.401-2.826-11.303C12.022 2.899 4.621 3.974 4.621 3.974s-1.076 7.402 2.825 11.303" fill="rgba(255, 255, 255, 1)" stroke="none"/>
  <path fill-rule="evenodd" d="M10.327 18.157c3.901 3.902 11.302 2.826 11.302 2.826s1.076-7.401-2.825-11.303C14.902 5.779 7.501 6.855 7.501 6.855s-1.076 7.401 2.826 11.302" fill="rgba(45, 176, 141, 1)" stroke="none"/>
  <path fill-rule="evenodd" d="M5.443 4.797c-.14 1.853-.23 6.974 2.64 9.844 2.877 2.878 7.99 2.781 9.844 2.641.14-1.853.23-6.975-2.64-9.846-2.869-2.868-7.99-2.778-9.844-2.639zm10.971 14.346c-2.657 0-6.864-.489-9.604-3.229C2.637 11.741 3.683 4.166 3.73 3.845a.9.9 0 0 1 .761-.761c.32-.045 7.896-1.094 12.069 3.079 4.173 4.174 3.127 11.748 3.08 12.069a.9.9 0 0 1-.761.761c-.11.016-1.075.15-2.465.15z" fill="rgba(103, 26, 29, 1)" stroke="none"/>
  <path fill-rule="evenodd" d="M27.381 2.387a.9.9 0 0 1-.143-1.789 18.67 18.67 0 0 1 2.036-.211c.528-.017.919.357.944.853a.9.9 0 0 1-.854.944c-.63.031-1.248.096-1.838.192a1.022 1.022 0 0 1-.145.011" fill="rgba(103, 26, 29, 1)" stroke="none"/>
  <path fill-rule="evenodd" d="M19.014 19.846a.9.9 0 0 1-.895-.817c-.044-.472-1.023-11.588 2.962-15.573a8.957 8.957 0 0 1 2.08-1.533.9.9 0 0 1 .855 1.583 7.164 7.164 0 0 0-1.662 1.223c-2.813 2.813-2.717 11.156-2.442 14.134a.9.9 0 0 1-.898.983" fill="rgba(103, 26, 29, 1)" stroke="none"/>
  <path fill-rule="evenodd" d="M12.885 15.685c2.188 0 4.234.714 6 1.942 1.766-1.228 3.812-1.942 6-1.942 6.627 0 12 6.447 12 14.4s-5.373 14.4-12 14.4c-2.188 0-4.234-.714-6-1.942-1.766 1.228-3.812 1.942-6 1.942-6.628 0-12-6.447-12-14.4s5.372-14.4 12-14.4" fill="rgba(255, 255, 255, 1)" stroke="none"/>
  <path fill-rule="evenodd" d="M15.765 18.565c2.188 0 4.234.714 6 1.942 1.766-1.228 3.812-1.942 6-1.942 6.628 0 12 6.447 12 14.4s-5.372 14.4-12 14.4c-2.188 0-4.234-.714-6-1.942-1.766 1.228-3.812 1.942-6 1.942-6.627 0-12-6.447-12-14.4s5.373-14.4 12-14.4" fill="rgba(222, 67, 110, 1)" stroke="none"/>
  <path fill-rule="evenodd" d="M18.885 41.643c.179 0 .359.054.514.161 1.676 1.165 3.573 1.781 5.486 1.781 6.12 0 11.1-6.056 11.1-13.5s-4.98-13.5-11.1-13.5c-1.913 0-3.81.616-5.486 1.781a.9.9 0 0 1-1.028 0c-1.676-1.165-3.573-1.781-5.486-1.781-6.12 0-11.1 6.056-11.1 13.5s4.98 13.5 11.1 13.5c1.913 0 3.81-.616 5.486-1.781a.905.905 0 0 1 .514-.161zm6 3.742c-2.087 0-4.149-.608-6-1.764-1.851 1.156-3.913 1.764-6 1.764-7.113 0-12.9-6.863-12.9-15.3 0-8.437 5.787-15.3 12.9-15.3 2.087 0 4.149.608 6 1.764 1.851-1.156 3.913-1.764 6-1.764 7.113 0 12.9 6.863 12.9 15.3 0 8.437-5.787 15.3-12.9 15.3z" fill="rgba(103, 26, 29, 1)" stroke="none"/>
  <path fill-rule="evenodd" d="M23.438 39.153a6.13 6.13 0 0 1-1.116-.102.9.9 0 0 1 .326-1.771c2.341.433 4.748-1.113 5.845-3.757a.9.9 0 0 1 1.662.69c-1.258 3.034-3.917 4.94-6.717 4.94" fill="rgba(103, 26, 29, 1)" stroke="none"/>
  <path fill-rule="evenodd" d="M29.903 30.792a.9.9 0 0 1-.894-.806 7.337 7.337 0 0 0-.195-1.074.9.9 0 0 1 1.742-.453c.114.44.196.89.243 1.339a.899.899 0 0 1-.896.994" fill="rgba(103, 26, 29, 1)" stroke="none"/>
</svg>
</g></svg></g></g>
<!-- /image 58968 -->

<!-- image 59914 -->
<g id="transformed-59914" data-image="59914" transform="translate(177.99, -23.67) rotate(355, 25, 30)"><g transform="translate(50, 0) scale(-1, 1)"><svg version="1.1" width="50px" height="60px" viewBox="0 0 50 60"><g id="original-59914"><svg xmlns="http://www.w3.org/2000/svg" viewBox="0 0 40 48" xmlns:xlink="http://www.w3.org/1999/xlink" version="1.1" preserveAspectRatio="xMidYMid meet">
  <path fill-rule="evenodd" d="M24.876 9.41c1.589 5.195-4.902.351-7.668 6.663L12.933 14.2l1.057-2.411c6.741-15.387 18.007-9.286 15.782-4.207-2.225 5.079-7.677.029-7.677.029" fill="rgba(255, 255, 255, 1)" stroke="none"/>
  <path fill-rule="evenodd" d="M27.756 11.39c1.589 5.196-4.902.351-7.668 6.663l-4.275-1.873 1.056-2.411c6.742-15.387 18.008-9.286 15.783-4.207-2.225 5.079-7.677.029-7.677.029" fill="rgba(45, 176, 141, 1)" stroke="none"/>
  <path fill-rule="evenodd" d="M14.119 13.737l2.665 1.168c1.656-2.95 4.188-3.272 5.908-3.492.572-.073 1.355-.172 1.48-.365.015-.025.131-.237-.048-.982a11.591 11.591 0 0 1-2.641-1.794.9.9 0 0 1 1.223-1.322c.432.399 1.413 1.156 2.478 1.614.028.011.057.023.084.036.667.276 1.358.429 1.969.301.722-.151 1.282-.701 1.711-1.681.629-1.436-.246-3.11-2.035-3.893-3.439-1.508-8.512.637-12.099 8.823l-.695 1.587zm3.088 3.236a.905.905 0 0 1-.36-.075l-4.275-1.874a.897.897 0 0 1-.463-1.185l1.057-2.411C17.834.771 24.459.285 27.635 1.678c2.729 1.195 4.003 3.889 2.961 6.265-.67 1.531-1.678 2.447-2.995 2.721a4.35 4.35 0 0 1-1.58.022c.008.467-.077.935-.337 1.339-.579.895-1.641 1.031-2.764 1.174-1.723.219-3.675.468-4.888 3.235a.899.899 0 0 1-.825.539z" fill="rgba(103, 26, 29, 1)" stroke="none"/>
  <path fill-rule="evenodd" d="M33.135 8.575c3.54 4.121-4.35 2.288-4.35 9.18h-4.667v-2.632c0-16.8 12.767-15.733 12.767-10.188s-7.02 3.108-7.02 3.108" fill="rgba(255, 255, 255, 1)" stroke="none"/>
  <path fill-rule="evenodd" d="M36.015 11.455c3.54 4.121-4.35 2.288-4.35 9.18h-4.667v-2.632c0-16.8 12.767-15.733 12.767-10.188s-7.02 3.108-7.02 3.108" fill="rgba(45, 176, 141, 1)" stroke="none"/>
  <path fill-rule="evenodd" d="M25.018 16.855h2.91c.332-3.366 2.522-4.678 4.01-5.569.495-.296 1.172-.702 1.209-.928.004-.029.025-.27-.439-.881a11.566 11.566 0 0 1-3.138-.584.9.9 0 0 1 .589-1.7c.55.189 1.731.484 2.878.484h.043a.817.817 0 0 1 .086-.002c.721-.014 1.419-.152 1.926-.513.601-.429.893-1.157.893-2.227 0-1.568-1.473-2.75-3.426-2.75-1.8 0-3.583.993-4.891 2.724-1.734 2.294-2.65 5.826-2.65 10.213v1.733zm3.767 1.8h-4.667a.9.9 0 0 1-.9-.9v-2.633c0-4.782 1.042-8.689 3.013-11.298C27.883 1.638 30.189.385 32.559.385c2.98 0 5.226 1.956 5.226 4.55 0 1.672-.555 2.915-1.652 3.695a4.352 4.352 0 0 1-1.438.654c.195.424.305.887.228 1.362-.171 1.052-1.088 1.602-2.06 2.184-1.49.893-3.178 1.904-3.178 4.925a.9.9 0 0 1-.9.9z" fill="rgba(103, 26, 29, 1)" stroke="none"/>
  <path fill-rule="evenodd" d="M.9 32.537c-.207 1.67 1.796 2.968 3.235 2.097 7.349-4.447 22.386-15.038 11.866-21.855C5.48 5.961 1.956 24.014.9 32.537" fill="rgba(255, 255, 255, 1)" stroke="none"/>
  <path fill-rule="evenodd" d="M3.78 35.417c-.207 1.669 1.796 2.967 3.236 2.096 7.348-4.446 22.385-15.037 11.865-21.855C8.36 8.841 4.836 26.893 3.78 35.417" fill="rgba(231, 122, 107, 1)" stroke="none"/>
  <path fill-rule="evenodd" d="M1.793 32.648c-.064.511.267.921.597 1.135.33.213.841.346 1.279.081 9.502-5.75 14.988-11.389 15.051-15.473.028-1.851-1.021-3.44-3.209-4.857-2.187-1.417-4.065-1.726-5.744-.944-3.702 1.726-6.609 9.037-7.974 20.058zm1.331 3.165a3.152 3.152 0 0 1-1.713-.52c-1.005-.65-1.543-1.749-1.404-2.867.848-6.846 3.145-18.738 8.999-21.467 2.255-1.053 4.772-.693 7.484 1.064 2.712 1.758 4.068 3.909 4.029 6.396-.099 6.458-10.015 13.414-15.917 16.985a2.848 2.848 0 0 1-1.478.409z" fill="rgba(103, 26, 29, 1)" stroke="none"/>
  <path fill-rule="evenodd" d="M7.357 19.54a.896.896 0 0 1-.489-.145L4.36 17.769a.899.899 0 1 1 .979-1.51l2.508 1.625a.9.9 0 0 1-.49 1.656" fill="rgba(103, 26, 29, 1)" stroke="none"/>
  <path fill-rule="evenodd" d="M11.819 30.226a.893.893 0 0 1-.488-.145l-3.207-2.078a.899.899 0 1 1 .979-1.51l3.206 2.078a.899.899 0 0 1-.49 1.655" fill="rgba(103, 26, 29, 1)" stroke="none"/>
  <path fill-rule="evenodd" d="M22.716 43.098c.918 1.849 3.9 1.849 4.818 0 4.684-9.441 13.257-30.293-2.409-30.293-15.665 0-7.093 20.852-2.409 30.293" fill="rgba(255, 255, 255, 1)" stroke="none"/>
  <path fill-rule="evenodd" d="M25.596 45.978c.918 1.849 3.901 1.849 4.818 0 4.684-9.442 13.257-30.293-2.409-30.293-15.665 0-7.093 20.851-2.409 30.293" fill="rgba(231, 122, 107, 1)" stroke="none"/>
  <path fill-rule="evenodd" d="M23.523 42.698c.324.654 1.04.887 1.602.887s1.279-.233 1.603-.887c2.861-5.766 9.105-19.84 5.305-25.968-1.263-2.036-3.522-3.025-6.908-3.025-3.385 0-5.644.989-6.907 3.025-3.801 6.128 2.444 20.202 5.305 25.968zm1.602 2.687c-1.405 0-2.637-.723-3.215-1.887-3.72-7.498-9.345-21.069-5.222-27.717 1.595-2.572 4.434-3.876 8.437-3.876 4.004 0 6.842 1.304 8.437 3.876C37.685 22.429 32.06 36 28.341 43.498c-.578 1.164-1.81 1.887-3.216 1.887z" fill="rgba(103, 26, 29, 1)" stroke="none"/>
  <path fill-rule="evenodd" d="M26.985 25.457h-1.44a.9.9 0 0 1 0-1.8h1.44a.9.9 0 0 1 0 1.8" fill="rgba(103, 26, 29, 1)" stroke="none"/>
  <path fill-rule="evenodd" d="M21.645 25.457h-5.336a.9.9 0 0 1 0-1.8h5.336a.9.9 0 0 1 0 1.8" fill="rgba(103, 26, 29, 1)" stroke="none"/>
  <path fill-rule="evenodd" d="M31.986 33.45h-6.441a.9.9 0 0 1 0-1.8h6.441a.9.9 0 0 1 0 1.8" fill="rgba(103, 26, 29, 1)" stroke="none"/>
</svg>
</g></svg></g></g>
<!-- /image 59914 -->

<!-- image 30761 -->
<g id="transformed-30761" data-image="30761" transform="translate(18.990000000000002, 131.82) rotate(19, 25, 30)"><g><svg version="1.1" width="50px" height="60px" viewBox="0 0 50 60"><g id="original-30761"><svg xmlns="http://www.w3.org/2000/svg" viewBox="0 0 40 48" xmlns:xlink="http://www.w3.org/1999/xlink" version="1.1" preserveAspectRatio="xMidYMid meet">
  <path fill-rule="evenodd" d="M33.503 17.67c2.04 17.137-8.43 28.645-22.369 26.575C5.535 43.413.885 39.656.885 33.996c0-5.661 4.589-10.25 10.249-10.25 4.271 0 7.751-.441 7.751-6.076" fill="rgba(255, 255, 255, 1)" stroke="none"/>
  <path fill-rule="evenodd" d="M21.765 20.55c0 5.635-3.48 6.077-7.751 6.077-5.661 0-10.249 4.588-10.249 10.249 0 5.66 4.65 9.417 10.249 10.249 13.939 2.07 24.409-9.438 22.369-26.575l-7.845-8.465-6.773 8.465" fill="rgba(153, 57, 110, 1)" stroke="none"/>
  <path fill-rule="evenodd" d="M14.325 45.384a22.62 22.62 0 0 1-3.323-.249C4.413 44.157-.015 39.681-.015 33.996c0-6.148 5.001-11.15 11.149-11.15 4.737 0 6.851-.747 6.851-5.176a.9.9 0 0 1 1.8 0c0 6.976-5.206 6.976-8.651 6.976-5.155 0-9.349 4.194-9.349 9.35 0 5.493 4.762 8.658 9.481 9.358 5.878.874 11.304-.769 15.274-4.625 4.878-4.74 7.09-12.376 6.069-20.953a.9.9 0 0 1 1.788-.212c1.087 9.138-1.319 17.323-6.603 22.455-3.617 3.514-8.313 5.365-13.469 5.365" fill="rgba(103, 26, 29, 1)" stroke="none"/>
  <path fill-rule="evenodd" d="M22.16 36.969c-2.313 1.73-5.272 2.496-8.551 2.009" fill="rgba(125, 41, 88, 1)" stroke="none"/>
  <path fill-rule="evenodd" d="M15.547 40.024c-.678 0-1.369-.052-2.07-.156a.9.9 0 0 1 .264-1.781c2.961.442 5.685-.196 7.879-1.839a.9.9 0 0 1 1.079 1.441c-2.061 1.543-4.504 2.335-7.152 2.335" fill="rgba(103, 26, 29, 1)" stroke="none"/>
  <path fill-rule="evenodd" d="M26.565 20.545s3.36-1.71 3.36-4.17c0 0 3.33 3.63 6.96 0-4.08 0-4.32-10.05-10.32-10.05s-6.24 10.05-10.32 10.05c3.63 3.63 6.96 0 6.96 0 0 2.46 3.36 4.17 3.36 4.17" fill="rgba(255, 255, 255, 1)" stroke="none"/>
  <path fill-rule="evenodd" d="M31.988 2.193a.9.9 0 0 1-.039-1.8 9.59 9.59 0 0 1 .414-.008.9.9 0 0 1 0 1.8c-.11 0-.222.002-.334.007l-.041.001" fill="rgba(103, 26, 29, 1)" stroke="none"/>
  <path fill-rule="evenodd" d="M27.285 7.225a.9.9 0 0 1-.9-.9c0-2.096.63-3.675 1.873-4.693a.9.9 0 1 1 1.14 1.393c-.805.659-1.213 1.77-1.213 3.3a.9.9 0 0 1-.9.9" fill="rgba(103, 26, 29, 1)" stroke="none"/>
  <path fill-rule="evenodd" d="M29.445 23.425s3.36-1.71 3.36-4.17c0 0 3.33 3.63 6.96 0-4.08 0-4.32-10.05-10.32-10.05s-6.24 10.05-10.32 10.05c3.63 3.63 6.96 0 6.96 0 0 2.46 3.36 4.17 3.36 4.17" fill="rgba(45, 176, 141, 1)" stroke="none"/>
  <path fill-rule="evenodd" d="M23.205 15.477a.9.9 0 0 1 .9.898c0 1.333 1.522 2.555 2.46 3.135.937-.58 2.46-1.802 2.46-3.135a.901.901 0 0 1 1.563-.608c.01.009 1.226 1.293 2.826 1.321a3.276 3.276 0 0 0 1.593-.405c-1.266-.864-2.136-2.55-2.987-4.198-1.334-2.586-2.715-5.26-5.455-5.26-2.741 0-4.121 2.674-5.455 5.26-.851 1.648-1.722 3.334-2.987 4.198a3.286 3.286 0 0 0 1.592.405c1.601-.028 2.817-1.312 2.829-1.324a.904.904 0 0 1 .661-.287zm3.36 5.968a.896.896 0 0 1-.409-.098c-.127-.064-2.569-1.33-3.497-3.388-.718.456-1.717.903-2.892.928-1.497.036-2.882-.6-4.159-1.876a.902.902 0 0 1 .637-1.536c1.296 0 2.208-1.769 3.265-3.816 1.434-2.777 3.218-6.234 7.055-6.234 3.836 0 5.621 3.457 7.055 6.235 1.057 2.046 1.969 3.815 3.265 3.815a.9.9 0 0 1 .636 1.536c-1.277 1.277-2.685 1.908-4.159 1.876-1.174-.025-2.173-.472-2.891-.928-.929 2.058-3.371 3.324-3.498 3.388a.895.895 0 0 1-.408.098z" fill="rgba(103, 26, 29, 1)" stroke="none"/>
</svg>
</g></svg></g></g>
<!-- /image 30761 -->
</defs><rect x="0" y="0" width="250" height="250" fill="rgba(255, 255, 255, 1)"></rect><use xlink:href="#transformed-tmp-1" transform="translate(-250, -250)"></use><use xlink:href="#transformed-tmp-1" transform="translate(0, -250)"></use><use xlink:href="#transformed-tmp-1" transform="translate(250, -250)"></use><use xlink:href="#transformed-tmp-1" transform="translate(-250, 0)"></use><use xlink:href="#transformed-tmp-1" transform="translate(0, 0)"></use><use xlink:href="#transformed-tmp-1" transform="translate(250, 0)"></use><use xlink:href="#transformed-tmp-1" transform="translate(-250, 250)"></use><use xlink:href="#transformed-tmp-1" transform="translate(0, 250)"></use><use xlink:href="#transformed-tmp-1" transform="translate(250, 250)"></use><use xlink:href="#transformed-tmp-2" transform="translate(-250, -250)"></use><use xlink:href="#transformed-tmp-2" transform="translate(0, -250)"></use><use xlink:href="#transformed-tmp-2" transform="translate(250, -250)"></use><use xlink:href="#transformed-tmp-2" transform="translate(-250, 0)"></use><use xlink:href="#transformed-tmp-2" transform="translate(0, 0)"></use><use xlink:href="#transformed-tmp-2" transform="translate(250, 0)"></use><use xlink:href="#transformed-tmp-2" transform="translate(-250, 250)"></use><use xlink:href="#transformed-tmp-2" transform="translate(0, 250)"></use><use xlink:href="#transformed-tmp-2" transform="translate(250, 250)"></use><use xlink:href="#transformed-96999" transform="translate(-250, -250)"></use><use xlink:href="#transformed-96999" transform="translate(0, -250)"></use><use xlink:href="#transformed-96999" transform="translate(250, -250)"></use><use xlink:href="#transformed-96999" transform="translate(-250, 0)"></use><use xlink:href="#transformed-96999" transform="translate(0, 0)"></use><use xlink:href="#transformed-96999" transform="translate(250, 0)"></use><use xlink:href="#transformed-96999" transform="translate(-250, 250)"></use><use xlink:href="#transformed-96999" transform="translate(0, 250)"></use><use xlink:href="#transformed-96999" transform="translate(250, 250)"></use><use xlink:href="#transformed-58968" transform="translate(-250, -250)"></use><use xlink:href="#transformed-58968" transform="translate(0, -250)"></use><use xlink:href="#transformed-58968" transform="translate(250, -250)"></use><use xlink:href="#transformed-58968" transform="translate(-250, 0)"></use><use xlink:href="#transformed-58968" transform="translate(0, 0)"></use><use xlink:href="#transformed-58968" transform="translate(250, 0)"></use><use xlink:href="#transformed-58968" transform="translate(-250, 250)"></use><use xlink:href="#transformed-58968" transform="translate(0, 250)"></use><use xlink:href="#transformed-58968" transform="translate(250, 250)"></use><use xlink:href="#transformed-59914" transform="translate(-250, -250)"></use><use xlink:href="#transformed-59914" transform="translate(0, -250)"></use><use xlink:href="#transformed-59914" transform="translate(250, -250)"></use><use xlink:href="#transformed-59914" transform="translate(-250, 0)"></use><use xlink:href="#transformed-59914" transform="translate(0, 0)"></use><use xlink:href="#transformed-59914" transform="translate(250, 0)"></use><use xlink:href="#transformed-59914" transform="translate(-250, 250)"></use><use xlink:href="#transformed-59914" transform="translate(0, 250)"></use><use xlink:href="#transformed-59914" transform="translate(250, 250)"></use><use xlink:href="#transformed-30761" transform="translate(-250, -250)"></use><use xlink:href="#transformed-30761" transform="translate(0, -250)"></use><use xlink:href="#transformed-30761" transform="translate(250, -250)"></use><use xlink:href="#transformed-30761" transform="translate(-250, 0)"></use><use xlink:href="#transformed-30761" transform="translate(0, 0)"></use><use xlink:href="#transformed-30761" transform="translate(250, 0)"></use><use xlink:href="#transformed-30761" transform="translate(-250, 250)"></use><use xlink:href="#transformed-30761" transform="translate(0, 250)"></use><use xlink:href="#transformed-30761" transform="translate(250, 250)"></use></svg>