<svg id="Group_146" data-name="Group 146" xmlns="http://www.w3.org/2000/svg" width="9" height="29.945" viewBox="0 0 9 29.945">
  <g id="Ellipse_178" data-name="Ellipse 178" transform="translate(0 20.945)" fill="#4d7cfe">
    <path d="M 4.5 8 C 2.570090055465698 8 1 6.429910182952881 1 4.5 C 1 2.570090055465698 2.570090055465698 1 4.5 1 C 6.429910182952881 1 8 2.570090055465698 8 4.5 C 8 6.429910182952881 6.429910182952881 8 4.5 8 Z" stroke="none"/>
    <path d="M 4.5 7 C 5.878499984741211 7 7 5.878499984741211 7 4.5 C 7 3.121500015258789 5.878499984741211 2 4.5 2 C 3.121500015258789 2 2 3.121500015258789 2 4.5 C 2 5.878499984741211 3.121500015258789 7 4.5 7 M 4.5 9 C 2.01471996307373 9 0 6.98528003692627 0 4.5 C 0 2.01471996307373 2.01471996307373 0 4.5 0 C 6.98528003692627 0 9 2.01471996307373 9 4.5 C 9 6.98528003692627 6.98528003692627 9 4.5 9 Z" stroke="none" fill="#4d7cfe"/>
  </g>
  <g id="Ellipse_178-2" data-name="Ellipse 178" fill="none">
    <path d="M4.5,9A4.5,4.5,0,1,0,0,4.5,4.5,4.5,0,0,0,4.5,9Z" stroke="none"/>
    <path d="M 4.5 7 C 5.878499984741211 7 7 5.878499984741211 7 4.5 C 7 3.121500015258789 5.878499984741211 2 4.5 2 C 3.121500015258789 2 2 3.121500015258789 2 4.5 C 2 5.878499984741211 3.121500015258789 7 4.5 7 M 4.5 9 C 2.01471996307373 9 0 6.98528003692627 0 4.5 C 0 2.01471996307373 2.01471996307373 0 4.5 0 C 6.98528003692627 0 9 2.01471996307373 9 4.5 C 9 6.98528003692627 6.98528003692627 9 4.5 9 Z" stroke="none" fill="#4d7cfe"/>
  </g>
  <line id="Line_28" data-name="Line 28" y1="9" transform="translate(4.5 10.445)" fill="none" stroke="#4d7cfe" stroke-width="2"/>
</svg>
