<?xml version="1.0"?>
<svg xmlns="http://www.w3.org/2000/svg" xmlns:xlink="http://www.w3.org/1999/xlink" version="1.1" id="Capa_1" x="0px" y="0px" viewBox="0 0 451 451"	style="stroke: 40px"	 xml:space="preserve" width="512px" height="512px"><g font-size="larger" stroke="rgb(0, 0, 0)" ><g>
	<path d="M 447.1 428 l -109.6 -109.6 c 29.4 -33.8 47.2 -77.9 47.2 -126.1 C 384.6 86.2 298.4 0 192.3 0 C 86.3 0 0.1 86.3 0.1 192.3 s 86.3 192.3 192.3 192.3 c 48.2 0 92.3 -17.8 126.1 -47.2 L 428.1 447 c 2.6 2.6 6.1 4 9.5 4 s 6.9 -1.3 9.5 -4 C 452.3 441.8 452.3 433.2 447.1 428 z M 26.9 192.3 c 0 -91.2 74.2 -165.3 165.3 -165.3 c 91.2 0 165.3 74.2 165.3 165.3 s -74.1 165.4 -165.3 165.4 C 101.2 357.7 26.9 283.5 26.9 192.3 z" data-original="#000000" class="active-path" data-old_color="#000000" fill="#6a75ca"/>
</g></g> </svg>
